<?xml version="1.0" encoding="UTF-8" standalone="no"?>
<!-- Created with Keyshape -->
<svg xmlns="http://www.w3.org/2000/svg" xmlns:xlink="http://www.w3.org/1999/xlink" id="Layer_1" x="0px" y="0px" viewBox="0 0 394 516" style="white-space: preserve-spaces;">
    <style>
@keyframes c1o_t { 0% { transform: translate(152.9px,149.45px) rotate(0deg) translate(-152.9px,-149.45px); } 100% { transform: translate(152.9px,149.45px) rotate(45deg) translate(-152.9px,-149.45px); } }
@keyframes c2_t { 0% { transform: translate(237.05px,350.393px) rotate(0deg) translate(-237.05px,-350.393px); } 100% { transform: translate(237.05px,350.393px) rotate(-45deg) translate(-237.05px,-350.393px); } }
    </style>
    <g id="c1">
        <path id="c1i" d="M152.9,196.4C127,196.4,105.9,175.3,105.9,149.4C105.9,123.5,127,102.4,152.9,102.4C178.8,102.4,199.9,123.5,199.9,149.4C199.9,175.3,178.8,196.4,152.9,196.4ZM152.9,116.4C134.7,116.4,119.9,131.2,119.9,149.4C119.9,167.6,134.7,182.4,152.9,182.4C171.1,182.4,185.9,167.6,185.9,149.4C185.9,131.2,171.1,116.4,152.9,116.4Z" fill="#f2f2f2"/>
        <path id="c1o" d="M270.9,123.6L243.6,121.4C241.8,115.7,239.5,110.2,236.8,104.9L254.6,84.1C257,81.3,256.8,77.2,254.2,74.6L227.6,48C225,45.4,220.9,45.3,218.1,47.6L197.3,65.4C192.1,62.6,186.6,60.3,180.8,58.6L178.6,31.3C178.3,27.7,175.3,24.9,171.6,24.9L134,24.9C130.4,24.9,127.3,27.7,127,31.3L124.8,58.6C119.1,60.4,113.6,62.7,108.3,65.4L87.6,47.7C84.8,45.3,80.7,45.5,78.1,48.1L51.5,74.6C48.9,77.2,48.8,81.3,51.1,84.1L68.9,105C66.1,110.2,63.8,115.7,62.1,121.5L34.8,123.7C31.2,124,28.4,127,28.4,130.7L28.4,168.3C28.4,171.9,31.2,175,34.8,175.3L62.1,177.5C63.9,183.2,66.2,188.7,68.9,194L51.1,214.8C48.7,217.6,48.9,221.7,51.5,224.3L78.1,250.9C79.5,252.3,81.3,253,83.1,253C84.7,253,86.3,252.4,87.6,251.3L108.4,233.5C113.6,236.3,119.1,238.6,124.9,240.3L127.1,267.6C127.4,271.2,130.4,274,134.1,274L171.7,274C175.3,274,178.4,271.2,178.7,267.6L180.9,240.3C186.6,238.5,192.1,236.2,197.4,233.5L218.2,251.3C219.5,252.4,221.1,253,222.7,253C224.5,253,226.3,252.3,227.7,251L254.3,224.4C256.9,221.8,257,217.7,254.7,214.9L236.9,194.1C239.7,188.9,242,183.4,243.7,177.6L271,175.4C274.6,175.1,277.4,172.1,277.4,168.4L277.4,130.8C277.4,126.9,274.6,123.9,270.9,123.6ZM263.4,158.4C263.4,160.2,262,161.8,260.1,161.9L246.9,163L235.2,163.9C233.7,164,232.4,165.1,232,166.6C231.1,170.7,229.9,174.6,228.4,178.4C227.9,179.6,227.4,180.8,226.9,182C225.2,185.8,223.3,189.4,221,192.9C220.2,194.2,220.3,195.9,221.3,197.1L228.9,206.1L237.5,216.2C238.7,217.6,238.6,219.7,237.3,221L224.5,233.8C223.2,235.1,221.1,235.2,219.7,234L209.6,225.4L200.6,217.8C199.4,216.8,197.7,216.7,196.4,217.5C192.9,219.7,189.3,221.7,185.5,223.4C184.3,223.9,183.1,224.4,181.9,224.9C178.1,226.4,174.1,227.6,170.1,228.5C168.6,228.8,167.5,230.1,167.4,231.7L166.5,243.4L165.4,256.6C165.3,258.4,163.7,259.9,161.9,259.9L143.8,259.9C142,259.9,140.4,258.5,140.3,256.6L139.2,243.4L138.3,231.7C138.2,230.2,137.1,228.9,135.6,228.5C131.5,227.6,127.6,226.4,123.8,224.9C122.6,224.4,121.4,223.9,120.2,223.4C116.4,221.7,112.8,219.8,109.3,217.5C108,216.7,106.3,216.8,105.1,217.8L96.1,225.4L86,234.1C84.6,235.3,82.5,235.2,81.2,233.9L68.4,221.1C67.1,219.8,67,217.7,68.2,216.3L76.8,206.2L84.4,197.2C85.4,196,85.5,194.3,84.7,193C82.5,189.5,80.5,185.9,78.8,182.1C78.3,180.9,77.8,179.7,77.3,178.5C75.8,174.7,74.6,170.7,73.7,166.7C73.4,165.2,72.1,164.1,70.5,164L58.9,163L45.6,162C43.8,161.9,42.3,160.3,42.3,158.5L42.3,140.4C42.3,138.6,43.7,137,45.6,136.9L58.8,135.8L70.5,134.9C72,134.8,73.3,133.7,73.7,132.2C74.6,128.1,75.8,124.2,77.3,120.4C77.8,119.2,78.3,118,78.8,116.8C80.5,113,82.4,109.4,84.7,105.9C85.5,104.6,85.4,102.9,84.4,101.7L76.8,92.7L68.2,82.6C66.9,81,67,79,68.3,77.6L81.1,64.8C82.4,63.5,84.5,63.4,85.9,64.6L96,73.2L105,80.8C106.2,81.8,107.9,81.9,109.2,81.1C112.7,78.9,116.3,76.9,120.1,75.2C121.3,74.7,122.5,74.2,123.7,73.7C127.5,72.2,131.5,71,135.5,70.1C137,69.8,138.1,68.5,138.2,66.9L139.1,55.2L140.2,42C140.3,40.2,141.9,38.7,143.7,38.7L161.8,38.7C163.6,38.7,165.2,40.1,165.3,42L166.4,55.2L167.3,66.9C167.4,68.4,168.5,69.7,170,70.1C174.1,71,178,72.2,181.8,73.7C183,74.2,184.2,74.7,185.4,75.2C189.2,76.9,192.8,78.8,196.3,81.1C197.6,81.9,199.3,81.8,200.5,80.8L209.5,73.2L219.6,64.6C221,63.4,223.1,63.5,224.4,64.8L237.2,77.6C238.5,78.9,238.6,81,237.4,82.4L229,92.6L221.4,101.6C220.4,102.8,220.3,104.5,221.1,105.8C223.3,109.3,225.3,112.9,227,116.7C227.5,117.9,228,119.1,228.5,120.3C230,124.1,231.2,128.1,232.1,132.1C232.4,133.6,233.7,134.7,235.3,134.8L247,135.7L260.2,136.8C262,136.9,263.5,138.5,263.5,140.3L263.5,158.4Z" fill="#f2f2f2" transform="translate(152.9,149.45) translate(-152.9,-149.45)" style="animation: c1o_t 8s linear infinite both;"/>
    </g>
    <g id="c2" transform="translate(237.05,350.393) translate(-237.05,-350.393)" style="animation: c2_t 8s linear infinite both;">
        <path id="c2i" d="M254.9,393.8C231,403.7,203.4,392.3,193.5,368.4C183.6,344.5,195,316.9,218.9,307C242.8,297.1,270.4,308.5,280.3,332.4C290.2,356.3,278.8,383.9,254.9,393.8ZM224.2,319.9C207.4,326.9,199.4,346.2,206.3,363C213.3,379.8,232.6,387.8,249.4,380.9C266.2,373.9,274.2,354.6,267.3,337.8C260.4,320.9,241.1,312.9,224.2,319.9Z" fill="#f2f2f2"/>
        <path id="c2o" d="M336.1,281.4L310.1,289.8C306.3,285.2,302,281,297.5,277.2L305.9,251.2C307,247.7,305.3,244,301.9,242.6L267.2,228.2C263.8,226.8,259.9,228.2,258.3,231.5L245.8,255.9C239.9,255.3,234,255.3,228,255.9L215.6,231.6C213.9,228.4,210.1,226.9,206.7,228.3L172,242.7C168.6,244.1,166.9,247.8,168,251.3L176.4,277.3C171.8,281.1,167.6,285.4,163.8,289.9L137.8,281.5C134.3,280.4,130.6,282.1,129.2,285.5L114.8,320.2C113.4,323.6,114.8,327.5,118.1,329.1L142.5,341.6C141.9,347.5,141.9,353.4,142.5,359.4L118.2,371.8C115,373.5,113.5,377.3,114.9,380.7L129.3,415.4C130.7,418.8,134.4,420.5,137.9,419.4L163.9,411C167.7,415.6,172,419.8,176.5,423.6L168.1,449.6C167,453.1,168.7,456.8,172.1,458.2L206.8,472.6C208.6,473.3,210.5,473.3,212.2,472.6C213.7,472,215,470.9,215.8,469.3L228.3,444.9C234.2,445.5,240.1,445.5,246.1,444.9L258.5,469.2C260.2,472.4,264,473.9,267.4,472.5L302.1,458.1C305.5,456.7,307.2,453,306.1,449.5L297.7,423.5C302.3,419.7,306.5,415.4,310.3,410.9L336.3,419.3C337.9,419.8,339.6,419.7,341.1,419.1C342.8,418.4,344.2,417.1,344.9,415.3L359.3,380.6C360.7,377.2,359.3,373.3,356,371.7L331.6,359.2C332.2,353.3,332.2,347.4,331.6,341.4L355.9,329C359.1,327.3,360.6,323.5,359.2,320.1L344.8,285.4C343.3,282,339.6,280.3,336.1,281.4ZM342.4,316.5C343.1,318.2,342.4,320.2,340.7,321L328.9,327L318.4,332.4C317,333.1,316.3,334.6,316.5,336.2C317.2,340.3,317.6,344.4,317.7,348.5C317.7,349.8,317.7,351.1,317.7,352.4C317.6,356.5,317.2,360.6,316.5,364.7C316.2,366.2,317,367.8,318.4,368.5L328.9,373.9L340.7,380C342.3,380.8,343.1,382.8,342.4,384.5L335.5,401.2C334.8,402.9,332.9,403.8,331.1,403.2L318.4,399.1L307.2,395.5C305.7,395,304.1,395.6,303.2,396.8C300.9,400.2,298.2,403.4,295.4,406.4C294.5,407.3,293.6,408.3,292.6,409.2C289.6,412,286.4,414.6,283,417C281.7,417.9,281.2,419.5,281.7,421L285.3,432.2L289.4,444.8C290,446.6,289.1,448.5,287.4,449.2L270.7,456.1C269,456.8,267,456.1,266.2,454.4L260.2,442.6L254.8,432.1C254.1,430.7,252.6,430,251,430.2C246.9,430.9,242.8,431.3,238.7,431.4C237.4,431.4,236.1,431.4,234.8,431.4C230.7,431.3,226.6,430.9,222.5,430.2C221,429.9,219.4,430.7,218.7,432.1L213.3,442.6L207.2,454.4C206.4,456,204.4,456.8,202.7,456.1L186,449.2C184.3,448.5,183.4,446.6,184,444.8L188.1,432.1L191.7,420.9C192.2,419.4,191.6,417.8,190.4,416.9C187,414.6,183.8,411.9,180.8,409.1C179.9,408.2,178.9,407.3,178,406.3C175.2,403.3,172.6,400.1,170.2,396.7C169.3,395.4,167.7,394.9,166.2,395.4L155,399L142.4,403.1C140.6,403.7,138.7,402.8,138,401.1L131.1,384.4C130.4,382.7,131.1,380.7,132.8,379.9L144.6,373.9L155.1,368.5C156.5,367.8,157.2,366.3,157,364.7C156.3,360.6,155.9,356.5,155.8,352.4C155.8,351.1,155.8,349.8,155.8,348.5C155.9,344.4,156.3,340.3,157,336.2C157.3,334.7,156.5,333.1,155.1,332.4L144.6,327L133,321C131.4,320.2,130.6,318.2,131.3,316.5L138.2,299.8C138.9,298.1,140.8,297.2,142.6,297.8L155.3,301.9L166.5,305.5C168,306,169.6,305.4,170.5,304.2C172.8,300.8,175.5,297.6,178.3,294.6C179.2,293.7,180.1,292.7,181.1,291.8C184.1,289,187.3,286.4,190.7,284C192,283.1,192.5,281.5,192,280L188.4,268.8L184.3,256.2C183.7,254.4,184.6,252.5,186.3,251.8L203,244.9C204.7,244.2,206.7,244.9,207.5,246.6L213.5,258.4L218.9,268.9C219.6,270.3,221.1,271,222.7,270.8C226.8,270.1,230.9,269.7,235,269.6C236.3,269.6,237.6,269.6,238.9,269.6C243,269.7,247.1,270.1,251.2,270.8C252.7,271.1,254.3,270.3,255,268.9L260.4,258.4L266.5,246.6C267.3,245,269.3,244.2,271,244.9L287.7,251.8C289.4,252.5,290.3,254.4,289.7,256.2L285.6,268.9L282,280.1C281.5,281.6,282.1,283.2,283.3,284.1C286.7,286.4,289.9,289.1,292.9,291.9C293.8,292.8,294.8,293.7,295.7,294.7C298.5,297.7,301.1,300.9,303.5,304.3C304.4,305.6,306,306.1,307.5,305.6L318.7,302L331.3,297.9C333.1,297.3,335,298.2,335.7,299.9Z" fill="#f2f2f2"/>
    </g>
</svg>
